<mxfile host="app.diagrams.net" modified="2021-03-05T07:08:00.872Z" agent="5.0 (Macintosh; Intel Mac OS X 10_15_5) AppleWebKit/537.36 (KHTML, like Gecko) Chrome/89.0.4389.72 Safari/537.36" etag="tFacfd-hzPELU5SF3QAR" version="14.3.1" type="github">
  <diagram id="JNALb2PzPKqTstAHPSO6" name="ポイントフロー">
    <mxGraphModel dx="2212" dy="1258" grid="1" gridSize="10" guides="1" tooltips="1" connect="1" arrows="1" fold="1" page="1" pageScale="1" pageWidth="4681" pageHeight="3300" math="0" shadow="0">
      <root>
        <mxCell id="0" />
        <mxCell id="1" parent="0" />
        <mxCell id="eb8NVAbyXiwgKea17MFX-14" value="" style="rounded=0;whiteSpace=wrap;html=1;fontSize=20;fillColor=none;" parent="1" vertex="1">
          <mxGeometry x="2110" y="300" width="320" height="600" as="geometry" />
        </mxCell>
        <mxCell id="n4ACcEZn-75h-fmExN6u-18" value="" style="rounded=0;whiteSpace=wrap;html=1;fontSize=20;fillColor=none;" parent="1" vertex="1">
          <mxGeometry x="1440" y="300" width="410" height="620" as="geometry" />
        </mxCell>
        <mxCell id="n4ACcEZn-75h-fmExN6u-24" value="" style="rounded=0;whiteSpace=wrap;html=1;fontSize=20;align=left;fillColor=none;" parent="1" vertex="1">
          <mxGeometry x="1440" y="1150" width="410" height="460" as="geometry" />
        </mxCell>
        <mxCell id="n4ACcEZn-75h-fmExN6u-7" value="&lt;div style=&quot;font-size: 20px;&quot;&gt;&lt;font style=&quot;font-size: 20px;&quot;&gt;PeX&lt;/font&gt;&lt;/div&gt;" style="rounded=1;whiteSpace=wrap;html=1;fontSize=20;" parent="1" vertex="1">
          <mxGeometry x="2190" y="490" width="160" height="120" as="geometry" />
        </mxCell>
        <mxCell id="n4ACcEZn-75h-fmExN6u-8" value="&lt;font style=&quot;font-size: 20px;&quot;&gt;ドットマネー&lt;/font&gt;" style="rounded=1;whiteSpace=wrap;html=1;fontSize=20;" parent="1" vertex="1">
          <mxGeometry x="2190" y="350" width="160" height="97.76" as="geometry" />
        </mxCell>
        <mxCell id="n4ACcEZn-75h-fmExN6u-9" value="" style="rounded=1;whiteSpace=wrap;html=1;fontSize=20;" parent="1" vertex="1">
          <mxGeometry x="2130" y="1050" width="160" height="60" as="geometry" />
        </mxCell>
        <mxCell id="n4ACcEZn-75h-fmExN6u-10" value="&lt;div style=&quot;font-size: 20px;&quot;&gt;&lt;font style=&quot;font-size: 20px;&quot;&gt;ECナビ&lt;/font&gt;&lt;/div&gt;" style="rounded=1;whiteSpace=wrap;html=1;fontSize=20;" parent="1" vertex="1">
          <mxGeometry x="1660" y="850" width="160" height="60" as="geometry" />
        </mxCell>
        <mxCell id="n4ACcEZn-75h-fmExN6u-11" value="&lt;font style=&quot;font-size: 20px;&quot;&gt;ライフメディア&lt;br style=&quot;font-size: 20px;&quot;&gt;&lt;/font&gt;" style="rounded=1;whiteSpace=wrap;html=1;fontSize=20;" parent="1" vertex="1">
          <mxGeometry x="1660" y="775" width="160" height="60" as="geometry" />
        </mxCell>
        <mxCell id="n4ACcEZn-75h-fmExN6u-13" value="" style="shape=flexArrow;endArrow=classic;html=1;fontSize=20;exitX=1;exitY=0.5;exitDx=0;exitDy=0;entryX=0;entryY=0.75;entryDx=0;entryDy=0;" parent="1" source="n4ACcEZn-75h-fmExN6u-10" target="n4ACcEZn-75h-fmExN6u-7" edge="1">
          <mxGeometry width="50" height="50" relative="1" as="geometry">
            <mxPoint x="1820" y="800" as="sourcePoint" />
            <mxPoint x="2030" y="830" as="targetPoint" />
          </mxGeometry>
        </mxCell>
        <mxCell id="n4ACcEZn-75h-fmExN6u-14" value="" style="shape=flexArrow;endArrow=classic;html=1;fontSize=20;entryX=0;entryY=0.5;entryDx=0;entryDy=0;exitX=1;exitY=0.75;exitDx=0;exitDy=0;fillColor=#dae8fc;strokeColor=#6c8ebf;" parent="1" source="n4ACcEZn-75h-fmExN6u-11" target="n4ACcEZn-75h-fmExN6u-7" edge="1">
          <mxGeometry width="50" height="50" relative="1" as="geometry">
            <mxPoint x="1810" y="690" as="sourcePoint" />
            <mxPoint x="1870" y="640" as="targetPoint" />
          </mxGeometry>
        </mxCell>
        <mxCell id="n4ACcEZn-75h-fmExN6u-19" value="一般ポイントサイト" style="whiteSpace=wrap;html=1;fontSize=20;" parent="1" vertex="1">
          <mxGeometry x="1440" y="270" width="410" height="30" as="geometry" />
        </mxCell>
        <mxCell id="n4ACcEZn-75h-fmExN6u-22" value="" style="shape=flexArrow;endArrow=classic;html=1;fontSize=20;entryX=0;entryY=0.25;entryDx=0;entryDy=0;exitX=1;exitY=0.5;exitDx=0;exitDy=0;" parent="1" source="n4ACcEZn-75h-fmExN6u-47" target="n4ACcEZn-75h-fmExN6u-8" edge="1">
          <mxGeometry width="50" height="50" relative="1" as="geometry">
            <mxPoint x="1830" y="525" as="sourcePoint" />
            <mxPoint x="1910" y="540" as="targetPoint" />
          </mxGeometry>
        </mxCell>
        <mxCell id="n4ACcEZn-75h-fmExN6u-23" value="" style="shape=flexArrow;endArrow=classic;html=1;fontSize=20;entryX=0;entryY=0.25;entryDx=0;entryDy=0;exitX=1;exitY=0.75;exitDx=0;exitDy=0;" parent="1" source="n4ACcEZn-75h-fmExN6u-47" target="n4ACcEZn-75h-fmExN6u-7" edge="1">
          <mxGeometry width="50" height="50" relative="1" as="geometry">
            <mxPoint x="1830" y="565" as="sourcePoint" />
            <mxPoint x="1920" y="585" as="targetPoint" />
          </mxGeometry>
        </mxCell>
        <mxCell id="n4ACcEZn-75h-fmExN6u-25" value="&lt;div&gt;三井住友カード&lt;/div&gt;&lt;div&gt;Vポイント&lt;br&gt;&lt;/div&gt;" style="rounded=1;whiteSpace=wrap;html=1;fontSize=20;align=center;" parent="1" vertex="1">
          <mxGeometry x="1660" y="1180" width="170" height="60" as="geometry" />
        </mxCell>
        <mxCell id="n4ACcEZn-75h-fmExN6u-31" value="&lt;div align=&quot;center&quot;&gt;2%増量&lt;/div&gt;" style="shape=hexagon;perimeter=hexagonPerimeter2;whiteSpace=wrap;html=1;fixedSize=1;fontSize=20;align=center;" parent="1" vertex="1">
          <mxGeometry x="2000" y="620" width="90" height="40" as="geometry" />
        </mxCell>
        <mxCell id="n4ACcEZn-75h-fmExN6u-32" value="" style="shape=flexArrow;endArrow=classic;html=1;fontSize=20;entryX=0;entryY=0.25;entryDx=0;entryDy=0;exitX=1;exitY=0.5;exitDx=0;exitDy=0;" parent="1" source="n4ACcEZn-75h-fmExN6u-8" target="n4ACcEZn-75h-fmExN6u-4" edge="1">
          <mxGeometry width="50" height="50" relative="1" as="geometry">
            <mxPoint x="2190" y="500" as="sourcePoint" />
            <mxPoint x="2240" y="450" as="targetPoint" />
          </mxGeometry>
        </mxCell>
        <mxCell id="n4ACcEZn-75h-fmExN6u-33" value="" style="shape=flexArrow;endArrow=classic;html=1;fontSize=20;entryX=0;entryY=0.75;entryDx=0;entryDy=0;exitX=1;exitY=0.25;exitDx=0;exitDy=0;" parent="1" source="n4ACcEZn-75h-fmExN6u-7" target="n4ACcEZn-75h-fmExN6u-4" edge="1">
          <mxGeometry width="50" height="50" relative="1" as="geometry">
            <mxPoint x="2340" y="700" as="sourcePoint" />
            <mxPoint x="2250" y="700" as="targetPoint" />
          </mxGeometry>
        </mxCell>
        <mxCell id="n4ACcEZn-75h-fmExN6u-16" value="" style="shape=flexArrow;endArrow=classic;html=1;fontSize=20;entryX=0;entryY=0.75;entryDx=0;entryDy=0;exitX=1;exitY=0.5;exitDx=0;exitDy=0;fillColor=#f5f5f5;strokeColor=#666666;" parent="1" source="n4ACcEZn-75h-fmExN6u-11" target="n4ACcEZn-75h-fmExN6u-8" edge="1">
          <mxGeometry width="50" height="50" relative="1" as="geometry">
            <mxPoint x="1820" y="655" as="sourcePoint" />
            <mxPoint x="1870" y="605" as="targetPoint" />
          </mxGeometry>
        </mxCell>
        <mxCell id="n4ACcEZn-75h-fmExN6u-35" value="" style="shape=flexArrow;endArrow=classic;startArrow=classic;html=1;fontSize=20;exitX=1;exitY=0.5;exitDx=0;exitDy=0;fillColor=#e1d5e7;strokeColor=#9673a6;" parent="1" source="n4ACcEZn-75h-fmExN6u-25" edge="1">
          <mxGeometry width="50" height="50" relative="1" as="geometry">
            <mxPoint x="1840" y="1030" as="sourcePoint" />
            <mxPoint x="2200" y="600" as="targetPoint" />
          </mxGeometry>
        </mxCell>
        <mxCell id="n4ACcEZn-75h-fmExN6u-36" value="&lt;div align=&quot;center&quot;&gt;クレジットカード&lt;br&gt;&lt;/div&gt;" style="rounded=0;whiteSpace=wrap;html=1;fontSize=20;align=center;" parent="1" vertex="1">
          <mxGeometry x="1440" y="1120" width="410" height="30" as="geometry" />
        </mxCell>
        <mxCell id="n4ACcEZn-75h-fmExN6u-47" value="" style="rounded=0;whiteSpace=wrap;html=1;fontSize=20;align=left;fillColor=none;verticalAlign=top;" parent="1" vertex="1">
          <mxGeometry x="1530" y="330" width="280" height="230" as="geometry" />
        </mxCell>
        <mxCell id="n4ACcEZn-75h-fmExN6u-48" value="ドマネ/PeX 等価" style="rounded=0;whiteSpace=wrap;html=1;fontSize=20;align=center;" parent="1" vertex="1">
          <mxGeometry x="1530" y="310" width="280" height="30" as="geometry" />
        </mxCell>
        <mxCell id="n4ACcEZn-75h-fmExN6u-51" value="ポイントタウン" style="rounded=1;whiteSpace=wrap;html=1;fontSize=20;align=center;" parent="1" vertex="1">
          <mxGeometry x="1560" y="350" width="230" height="30" as="geometry" />
        </mxCell>
        <mxCell id="n4ACcEZn-75h-fmExN6u-52" value="ポイントインカム" style="rounded=1;whiteSpace=wrap;html=1;fontSize=20;align=center;" parent="1" vertex="1">
          <mxGeometry x="1560" y="390" width="230" height="30" as="geometry" />
        </mxCell>
        <mxCell id="n4ACcEZn-75h-fmExN6u-53" value="ちょびリッチ" style="rounded=1;whiteSpace=wrap;html=1;fontSize=20;align=center;" parent="1" vertex="1">
          <mxGeometry x="1560" y="430" width="230" height="30" as="geometry" />
        </mxCell>
        <mxCell id="n4ACcEZn-75h-fmExN6u-61" value="&lt;div&gt;JCB&lt;/div&gt;&lt;div&gt;OkiDokiポイント&lt;br&gt;&lt;/div&gt;" style="rounded=1;whiteSpace=wrap;html=1;fontSize=20;align=center;" parent="1" vertex="1">
          <mxGeometry x="1660" y="1280" width="170" height="60" as="geometry" />
        </mxCell>
        <mxCell id="eb8NVAbyXiwgKea17MFX-3" value="セシールスマイルポイント" style="rounded=1;whiteSpace=wrap;html=1;fontSize=20;" parent="1" vertex="1">
          <mxGeometry x="1250" y="1280" width="160" height="60" as="geometry" />
        </mxCell>
        <mxCell id="eb8NVAbyXiwgKea17MFX-6" value="エルネ" style="rounded=1;whiteSpace=wrap;html=1;fontSize=20;" parent="1" vertex="1">
          <mxGeometry x="1660" y="710" width="160" height="30" as="geometry" />
        </mxCell>
        <mxCell id="eb8NVAbyXiwgKea17MFX-7" value="" style="shape=flexArrow;endArrow=classic;html=1;fontSize=20;entryX=1;entryY=0.5;entryDx=0;entryDy=0;exitX=0;exitY=0.5;exitDx=0;exitDy=0;" parent="1" source="n4ACcEZn-75h-fmExN6u-61" target="eb8NVAbyXiwgKea17MFX-3" edge="1">
          <mxGeometry width="50" height="50" relative="1" as="geometry">
            <mxPoint x="1490" y="1135" as="sourcePoint" />
            <mxPoint x="1540" y="1085" as="targetPoint" />
          </mxGeometry>
        </mxCell>
        <mxCell id="eb8NVAbyXiwgKea17MFX-8" value="" style="shape=flexArrow;endArrow=classic;html=1;fontSize=20;exitX=0.5;exitY=0;exitDx=0;exitDy=0;entryX=0;entryY=0.5;entryDx=0;entryDy=0;" parent="1" source="eb8NVAbyXiwgKea17MFX-3" target="eb8NVAbyXiwgKea17MFX-6" edge="1">
          <mxGeometry width="50" height="50" relative="1" as="geometry">
            <mxPoint x="1330" y="1070" as="sourcePoint" />
            <mxPoint x="1330" y="660" as="targetPoint" />
            <Array as="points">
              <mxPoint x="1330" y="725" />
            </Array>
          </mxGeometry>
        </mxCell>
        <mxCell id="eb8NVAbyXiwgKea17MFX-10" value="" style="shape=flexArrow;endArrow=classic;html=1;fontSize=20;entryX=0;entryY=0.5;entryDx=0;entryDy=0;fillColor=#f8cecc;strokeColor=#b85450;exitX=1;exitY=0.5;exitDx=0;exitDy=0;" parent="1" source="eb8NVAbyXiwgKea17MFX-6" target="n4ACcEZn-75h-fmExN6u-8" edge="1">
          <mxGeometry width="50" height="50" relative="1" as="geometry">
            <mxPoint x="1820" y="680" as="sourcePoint" />
            <mxPoint x="1870" y="630" as="targetPoint" />
          </mxGeometry>
        </mxCell>
        <mxCell id="eb8NVAbyXiwgKea17MFX-11" value="10%減" style="shape=hexagon;perimeter=hexagonPerimeter2;whiteSpace=wrap;html=1;fixedSize=1;fontSize=20;" parent="1" vertex="1">
          <mxGeometry x="1850" y="620" width="100" height="40" as="geometry" />
        </mxCell>
        <mxCell id="eb8NVAbyXiwgKea17MFX-15" value="中継/集約" style="rounded=0;whiteSpace=wrap;html=1;fontSize=20;" parent="1" vertex="1">
          <mxGeometry x="2110" y="270" width="320" height="30" as="geometry" />
        </mxCell>
        <mxCell id="0r6g7IO5Q1uZSNd1gTx7-1" value="JRキューポ" style="rounded=1;whiteSpace=wrap;html=1;fontSize=20;" parent="1" vertex="1">
          <mxGeometry x="2600" y="800" width="170" height="60" as="geometry" />
        </mxCell>
        <mxCell id="0r6g7IO5Q1uZSNd1gTx7-4" value="&lt;div style=&quot;font-size: 20px&quot;&gt;Gポイント&lt;/div&gt;" style="rounded=1;whiteSpace=wrap;html=1;fontSize=20;" parent="1" vertex="1">
          <mxGeometry x="2190" y="740" width="160" height="120" as="geometry" />
        </mxCell>
        <mxCell id="0r6g7IO5Q1uZSNd1gTx7-5" value="" style="shape=flexArrow;endArrow=classic;startArrow=classic;html=1;exitX=1;exitY=0.5;exitDx=0;exitDy=0;entryX=0;entryY=0.75;entryDx=0;entryDy=0;fillColor=#e1d5e7;strokeColor=#9673a6;" parent="1" source="n4ACcEZn-75h-fmExN6u-25" target="0r6g7IO5Q1uZSNd1gTx7-4" edge="1">
          <mxGeometry width="50" height="50" relative="1" as="geometry">
            <mxPoint x="1960" y="1220" as="sourcePoint" />
            <mxPoint x="2080" y="1000" as="targetPoint" />
          </mxGeometry>
        </mxCell>
        <mxCell id="0r6g7IO5Q1uZSNd1gTx7-8" value="" style="shape=flexArrow;endArrow=classic;startArrow=classic;html=1;exitX=1;exitY=0.75;exitDx=0;exitDy=0;entryX=0;entryY=0.5;entryDx=0;entryDy=0;fillColor=#d5e8d4;strokeColor=#82b366;" parent="1" source="0r6g7IO5Q1uZSNd1gTx7-4" target="0r6g7IO5Q1uZSNd1gTx7-1" edge="1">
          <mxGeometry width="50" height="50" relative="1" as="geometry">
            <mxPoint x="2470" y="790" as="sourcePoint" />
            <mxPoint x="2520" y="740" as="targetPoint" />
          </mxGeometry>
        </mxCell>
        <mxCell id="0r6g7IO5Q1uZSNd1gTx7-9" value="Tポイント" style="rounded=1;whiteSpace=wrap;html=1;fontSize=20;" parent="1" vertex="1">
          <mxGeometry x="2600" y="650" width="170" height="60" as="geometry" />
        </mxCell>
        <mxCell id="0r6g7IO5Q1uZSNd1gTx7-10" value="" style="shape=flexArrow;endArrow=classic;startArrow=classic;html=1;exitX=0.5;exitY=0;exitDx=0;exitDy=0;entryX=0.5;entryY=1;entryDx=0;entryDy=0;fillColor=#d5e8d4;strokeColor=#82b366;" parent="1" source="0r6g7IO5Q1uZSNd1gTx7-1" target="0r6g7IO5Q1uZSNd1gTx7-9" edge="1">
          <mxGeometry width="50" height="50" relative="1" as="geometry">
            <mxPoint x="2440" y="750" as="sourcePoint" />
            <mxPoint x="2500" y="740" as="targetPoint" />
          </mxGeometry>
        </mxCell>
        <mxCell id="0r6g7IO5Q1uZSNd1gTx7-12" value="永久不滅ポイント" style="rounded=1;whiteSpace=wrap;html=1;fontSize=20;" parent="1" vertex="1">
          <mxGeometry x="2720" y="960" width="170" height="60" as="geometry" />
        </mxCell>
        <mxCell id="0r6g7IO5Q1uZSNd1gTx7-13" value="" style="shape=flexArrow;endArrow=classic;html=1;entryX=0;entryY=0.5;entryDx=0;entryDy=0;exitX=1;exitY=0.75;exitDx=0;exitDy=0;fillColor=#f8cecc;strokeColor=#b85450;" parent="1" source="n4ACcEZn-75h-fmExN6u-7" target="0r6g7IO5Q1uZSNd1gTx7-9" edge="1">
          <mxGeometry width="50" height="50" relative="1" as="geometry">
            <mxPoint x="2360" y="600" as="sourcePoint" />
            <mxPoint x="2410" y="550" as="targetPoint" />
          </mxGeometry>
        </mxCell>
        <mxCell id="0r6g7IO5Q1uZSNd1gTx7-14" value="&lt;div&gt;500pt=50円 (&lt;span&gt;*N&lt;/span&gt;&lt;span&gt;1)&lt;/span&gt;&lt;/div&gt;" style="shape=hexagon;perimeter=hexagonPerimeter2;whiteSpace=wrap;html=1;fixedSize=1;fontSize=16;" parent="1" vertex="1">
          <mxGeometry x="2390" y="610" width="150" height="30" as="geometry" />
        </mxCell>
        <mxCell id="0r6g7IO5Q1uZSNd1gTx7-15" value="" style="shape=flexArrow;endArrow=classic;startArrow=classic;html=1;entryX=0.75;entryY=1;entryDx=0;entryDy=0;fillColor=#d5e8d4;strokeColor=#82b366;exitX=0.25;exitY=0;exitDx=0;exitDy=0;" parent="1" source="0r6g7IO5Q1uZSNd1gTx7-12" target="0r6g7IO5Q1uZSNd1gTx7-1" edge="1">
          <mxGeometry width="50" height="50" relative="1" as="geometry">
            <mxPoint x="2760" y="960" as="sourcePoint" />
            <mxPoint x="2720" y="890" as="targetPoint" />
          </mxGeometry>
        </mxCell>
        <mxCell id="kb6ahVInnKZUIDJ3Hx-f-1" value="JALマイル" style="rounded=1;whiteSpace=wrap;html=1;fontSize=20;" parent="1" vertex="1">
          <mxGeometry x="3000" y="470" width="170" height="60" as="geometry" />
        </mxCell>
        <mxCell id="kb6ahVInnKZUIDJ3Hx-f-2" value="ANAマイル" style="rounded=1;whiteSpace=wrap;html=1;fontSize=20;" parent="1" vertex="1">
          <mxGeometry x="3000" y="800" width="170" height="60" as="geometry" />
        </mxCell>
        <mxCell id="kb6ahVInnKZUIDJ3Hx-f-3" value="Ponta" style="rounded=1;whiteSpace=wrap;html=1;align=center;fontSize=20;" parent="1" vertex="1">
          <mxGeometry x="2600" y="470" width="170" height="60" as="geometry" />
        </mxCell>
        <mxCell id="kb6ahVInnKZUIDJ3Hx-f-4" value="" style="group" parent="1" vertex="1" connectable="0">
          <mxGeometry x="2600" y="235" width="170" height="135" as="geometry" />
        </mxCell>
        <mxCell id="n4ACcEZn-75h-fmExN6u-4" value="&lt;div style=&quot;font-size: 20px;&quot; align=&quot;center&quot;&gt;&lt;font style=&quot;font-size: 20px;&quot;&gt;dポイント&lt;/font&gt;&lt;/div&gt;" style="rounded=1;whiteSpace=wrap;html=1;align=center;fontSize=20;" parent="kb6ahVInnKZUIDJ3Hx-f-4" vertex="1">
          <mxGeometry y="75" width="170" height="60" as="geometry" />
        </mxCell>
        <mxCell id="kb6ahVInnKZUIDJ3Hx-f-5" value="" style="shape=flexArrow;endArrow=classic;html=1;exitX=1;exitY=0.25;exitDx=0;exitDy=0;entryX=0.75;entryY=1;entryDx=0;entryDy=0;" parent="1" source="0r6g7IO5Q1uZSNd1gTx7-1" target="kb6ahVInnKZUIDJ3Hx-f-3" edge="1">
          <mxGeometry width="50" height="50" relative="1" as="geometry">
            <mxPoint x="2790" y="830" as="sourcePoint" />
            <mxPoint x="2730" y="580" as="targetPoint" />
            <Array as="points">
              <mxPoint x="2830" y="815" />
              <mxPoint x="2830" y="580" />
              <mxPoint x="2728" y="580" />
            </Array>
          </mxGeometry>
        </mxCell>
        <mxCell id="rARvepKuOwMLc6lqj7yM-1" value="エポスポイント" style="rounded=1;whiteSpace=wrap;html=1;fontSize=20;" parent="1" vertex="1">
          <mxGeometry x="2470" y="960" width="170" height="60" as="geometry" />
        </mxCell>
        <mxCell id="rARvepKuOwMLc6lqj7yM-2" value="" style="shape=flexArrow;endArrow=classic;startArrow=classic;html=1;entryX=0.25;entryY=1;entryDx=0;entryDy=0;exitX=0.75;exitY=0;exitDx=0;exitDy=0;fillColor=#d5e8d4;strokeColor=#82b366;" parent="1" source="rARvepKuOwMLc6lqj7yM-1" target="0r6g7IO5Q1uZSNd1gTx7-1" edge="1">
          <mxGeometry width="50" height="50" relative="1" as="geometry">
            <mxPoint x="2580" y="960" as="sourcePoint" />
            <mxPoint x="2630" y="910" as="targetPoint" />
          </mxGeometry>
        </mxCell>
        <mxCell id="rARvepKuOwMLc6lqj7yM-3" value="" style="shape=flexArrow;endArrow=classic;html=1;entryX=0;entryY=0.5;entryDx=0;entryDy=0;exitX=1;exitY=0.5;exitDx=0;exitDy=0;fillColor=#f8cecc;strokeColor=#b85450;" parent="1" source="kb6ahVInnKZUIDJ3Hx-f-3" target="kb6ahVInnKZUIDJ3Hx-f-1" edge="1">
          <mxGeometry width="50" height="50" relative="1" as="geometry">
            <mxPoint x="2790" y="530" as="sourcePoint" />
            <mxPoint x="2840" y="480" as="targetPoint" />
          </mxGeometry>
        </mxCell>
        <mxCell id="rARvepKuOwMLc6lqj7yM-4" value="50% (*N2)" style="shape=hexagon;perimeter=hexagonPerimeter2;whiteSpace=wrap;html=1;fixedSize=1;fontSize=17;" parent="1" vertex="1">
          <mxGeometry x="2830" y="485" width="110" height="30" as="geometry" />
        </mxCell>
        <mxCell id="rARvepKuOwMLc6lqj7yM-5" value="" style="shape=flexArrow;endArrow=classic;html=1;fontSize=17;entryX=0;entryY=0;entryDx=0;entryDy=0;exitX=1;exitY=0.75;exitDx=0;exitDy=0;fillColor=#f5f5f5;strokeColor=#666666;" parent="1" source="n4ACcEZn-75h-fmExN6u-8" target="0r6g7IO5Q1uZSNd1gTx7-9" edge="1">
          <mxGeometry width="50" height="50" relative="1" as="geometry">
            <mxPoint x="2380" y="480" as="sourcePoint" />
            <mxPoint x="2430" y="430" as="targetPoint" />
          </mxGeometry>
        </mxCell>
        <mxCell id="rARvepKuOwMLc6lqj7yM-7" value="" style="shape=flexArrow;endArrow=classic;html=1;fontSize=17;entryX=0;entryY=0.25;entryDx=0;entryDy=0;exitX=1;exitY=0.75;exitDx=0;exitDy=0;fillColor=#f5f5f5;strokeColor=#666666;" parent="1" source="n4ACcEZn-75h-fmExN6u-8" target="kb6ahVInnKZUIDJ3Hx-f-3" edge="1">
          <mxGeometry width="50" height="50" relative="1" as="geometry">
            <mxPoint x="2390" y="460" as="sourcePoint" />
            <mxPoint x="2440" y="410" as="targetPoint" />
          </mxGeometry>
        </mxCell>
        <mxCell id="n4ACcEZn-75h-fmExN6u-6" value="毎年11~12月に20%増量" style="shape=callout;whiteSpace=wrap;html=1;perimeter=calloutPerimeter;fontSize=20;position2=0.53;" parent="1" vertex="1">
          <mxGeometry x="2600" y="230" width="150" height="80" as="geometry" />
        </mxCell>
        <mxCell id="rZXJAhksHCK-96D58tUN-5" value="" style="group" parent="1" vertex="1" connectable="0">
          <mxGeometry x="3120" y="1270" width="600" height="130" as="geometry" />
        </mxCell>
        <mxCell id="rZXJAhksHCK-96D58tUN-6" value="" style="group" parent="rZXJAhksHCK-96D58tUN-5" vertex="1" connectable="0">
          <mxGeometry y="10" width="600" height="120" as="geometry" />
        </mxCell>
        <mxCell id="rZXJAhksHCK-96D58tUN-2" value="*N1 ECナビでサービスを利用し, キャンペーンにエントリーすると手数料(500円分)と交換ポイントの4%がECナビに戻る&lt;br&gt;*N2 Ponta-&amp;gt;JALマイルの交換はまれにレート20%アップを行っており, その場合は60%になる (通常100pt-&amp;gt;50mi, 増量100pt-&amp;gt;60mi)" style="rounded=0;whiteSpace=wrap;html=1;fontSize=12;align=left;verticalAlign=top;" parent="rZXJAhksHCK-96D58tUN-6" vertex="1">
          <mxGeometry y="20" width="600" height="100" as="geometry" />
        </mxCell>
        <mxCell id="rZXJAhksHCK-96D58tUN-4" value="注意事項" style="rounded=0;whiteSpace=wrap;html=1;fontSize=14;align=center;" parent="rZXJAhksHCK-96D58tUN-6" vertex="1">
          <mxGeometry width="600" height="20" as="geometry" />
        </mxCell>
        <mxCell id="rZXJAhksHCK-96D58tUN-9" value="" style="group" parent="1" vertex="1" connectable="0">
          <mxGeometry x="3120" y="1110" width="600" height="130" as="geometry" />
        </mxCell>
        <mxCell id="rZXJAhksHCK-96D58tUN-10" value="" style="group" parent="rZXJAhksHCK-96D58tUN-9" vertex="1" connectable="0">
          <mxGeometry y="10" width="600" height="120" as="geometry" />
        </mxCell>
        <mxCell id="rZXJAhksHCK-96D58tUN-11" value="*C1 JQ CARD エポス/JQ CARD エポスゴールド (エポスポイント&amp;lt;-&amp;gt;JRキューポ)&lt;br&gt;*C2 JQカードセゾン (永久不滅ポイント&amp;lt;-&amp;gt;JRキューポ)" style="rounded=0;whiteSpace=wrap;html=1;fontSize=12;align=left;verticalAlign=top;" parent="rZXJAhksHCK-96D58tUN-10" vertex="1">
          <mxGeometry y="20" width="600" height="100" as="geometry" />
        </mxCell>
        <mxCell id="rZXJAhksHCK-96D58tUN-12" value="ポイント交換ルート開通に必要なカード" style="rounded=0;whiteSpace=wrap;html=1;fontSize=14;align=center;" parent="rZXJAhksHCK-96D58tUN-10" vertex="1">
          <mxGeometry width="600" height="20" as="geometry" />
        </mxCell>
        <mxCell id="35Za1Qmwk_jCWzCy-l4y-2" value="*C1" style="text;html=1;strokeColor=none;fillColor=none;align=center;verticalAlign=middle;whiteSpace=wrap;rounded=0;fontSize=19;" parent="1" vertex="1">
          <mxGeometry x="2600" y="900" width="40" height="20" as="geometry" />
        </mxCell>
        <mxCell id="35Za1Qmwk_jCWzCy-l4y-3" value="*C2" style="text;html=1;strokeColor=none;fillColor=none;align=center;verticalAlign=middle;whiteSpace=wrap;rounded=0;fontSize=19;" parent="1" vertex="1">
          <mxGeometry x="2730" y="900" width="40" height="20" as="geometry" />
        </mxCell>
        <mxCell id="lN5nsVR4za2gzK-BzXJi-1" value="" style="group" parent="1" vertex="1" connectable="0">
          <mxGeometry x="3120" y="1430" width="600" height="130" as="geometry" />
        </mxCell>
        <mxCell id="lN5nsVR4za2gzK-BzXJi-2" value="" style="group" parent="lN5nsVR4za2gzK-BzXJi-1" vertex="1" connectable="0">
          <mxGeometry y="10" width="600" height="120" as="geometry" />
        </mxCell>
        <mxCell id="lN5nsVR4za2gzK-BzXJi-3" value="白: 等価&lt;br&gt;グレー: 等価(白線が重なると見にくいので色付け)&lt;br&gt;緑: 相互交換可能かつ等価&lt;br&gt;紫: 相互交換可能かつ減量&lt;br&gt;青: 増量&lt;br&gt;赤: 減量または手数料必要" style="rounded=0;whiteSpace=wrap;html=1;fontSize=12;align=left;verticalAlign=top;" parent="lN5nsVR4za2gzK-BzXJi-2" vertex="1">
          <mxGeometry y="20" width="600" height="100" as="geometry" />
        </mxCell>
        <mxCell id="lN5nsVR4za2gzK-BzXJi-4" value="注意事項" style="rounded=0;whiteSpace=wrap;html=1;fontSize=14;align=center;" parent="lN5nsVR4za2gzK-BzXJi-2" vertex="1">
          <mxGeometry width="600" height="20" as="geometry" />
        </mxCell>
      </root>
    </mxGraphModel>
  </diagram>
</mxfile>
